<?xml version="1.0" encoding="UTF-8"?>
<svg version="1.1" xmlns="http://www.w3.org/2000/svg" width="512" height="512">
<path d="M0 0 C0.71897461 0.0731543 1.43794922 0.14630859 2.17871094 0.22167969 C35.73727084 3.94365668 66.27572114 20.47405917 90 44 C91.40378906 45.38445312 91.40378906 45.38445312 92.8359375 46.796875 C119.32519421 74.27283755 133.33650935 113.05320144 133 151 C132.27749492 175.31424267 127.13610485 200.09847289 114.4375 221.125 C110.78363833 227.5291869 112.112028 232.27875651 113.7578125 239.17578125 C116.60790637 251.39244576 118.75795901 264.66677682 112 276 C107.14450442 283.29760874 100.38275424 287.64748686 92 290 C81.22141602 291.32190181 71.88396718 289.29718661 61.62695312 286.046875 C53.54639292 283.55063233 48.34794392 284.12227332 40.625 287.75 C4.01293258 304.10826777 -38.1611298 302.55594967 -75.1796875 288.44140625 C-95.06465337 280.44745012 -111.0938433 267.91858816 -126.25 253.0625 C-126.90701904 252.42344727 -127.56403809 251.78439453 -128.2409668 251.12597656 C-128.847229 250.51850586 -129.45349121 249.91103516 -130.078125 249.28515625 C-130.61856445 248.74769775 -131.15900391 248.21023926 -131.71582031 247.65649414 C-133.1634164 245.78920527 -133.59192544 244.30750468 -134 242 C-132.56720703 241.07380859 -132.56720703 241.07380859 -131.10546875 240.12890625 C-123.01301725 234.84879963 -115.26211913 229.40429599 -108 223 C-107.30648437 222.39027344 -106.61296875 221.78054687 -105.8984375 221.15234375 C-84.61011203 201.17863599 -73.38839471 171.58769242 -71.71484375 142.90625 C-70.96493991 110.30173521 -83.44874844 80.32371681 -105.37109375 56.56616211 C-109.76083119 51.99564576 -114.59278281 48.30319239 -119.796875 44.70703125 C-120.52390625 44.14371094 -121.2509375 43.58039063 -122 43 C-122 41 -122 41 -120.77734375 39.66015625 C-86.91896055 10.25871521 -45.0072227 -4.76547064 0 0 Z M-19.25 86.54296875 C-22.09582555 90.86111377 -22.98280102 94.90548044 -22 100 C-20.55253479 104.00085889 -18.48341027 106.55111903 -15.375 109.4375 C-10.80102057 111.55508307 -6.95993123 111.67408461 -2 111 C2.35436713 109.25825315 5.69521463 106.09542631 8 102 C9.30407063 97.56297921 9.39041321 94.12786038 7.875 89.75 C5.13272791 85.72800093 2.69508026 82.56502675 -2 81 C-9.13660075 80.25071834 -14.44043446 80.60616129 -19.25 86.54296875 Z M-30 131 C-32.28875518 134.21856197 -33 136.11858134 -33 140.0625 C-31.56643498 144.27359726 -28.98604716 147.00697642 -25 149 C-22.36 149 -19.72 149 -17 149 C-17 170.45 -17 191.9 -17 214 C-21.62 214 -26.24 214 -31 214 C-35.99018825 216.64204566 -35.99018825 216.64204566 -38 221 C-38.49276537 225.63199447 -37.87025842 228.30966775 -35 232 C-31.98934703 233.86972066 -29.65895527 234.26204752 -26.14306641 234.30639648 C-25.18171783 234.32238388 -24.22036926 234.33837128 -23.22988892 234.35484314 C-21.68136734 234.36288719 -21.68136734 234.36288719 -20.1015625 234.37109375 C-19.03384613 234.38012222 -17.96612976 234.3891507 -16.86605835 234.39845276 C-14.60832523 234.41295382 -12.3505501 234.42184163 -10.09277344 234.42553711 C-6.64445984 234.43743287 -3.197936 234.48662174 0.25 234.53710938 C2.44530378 234.54657388 4.64061853 234.55380878 6.8359375 234.55859375 C7.86423676 234.57812607 8.89253601 234.59765839 9.95199585 234.61778259 C16.23077461 234.58053663 16.23077461 234.58053663 21.63134766 231.68383789 C24.58375649 228.33856575 25.07925605 226.43833894 25 222 C23.23908445 217.9220903 21.67826355 216.75869766 18 214 C13.38 214 8.76 214 4 214 C4 192.55 4 171.1 4 149 C6.31 149 8.62 149 11 149 C14.98066095 147.42275698 16.60667274 146.58999089 19 143 C19.4408216 138.44484344 19.63155339 136.11736369 17.375 132.125 C11.23255917 126.62913189 3.00064778 127.66091436 -4.73999023 127.68432617 C-6.92807852 127.68748639 -9.11481275 127.66398992 -11.30273438 127.63867188 C-12.71093582 127.63639834 -14.11914085 127.63569564 -15.52734375 127.63671875 C-16.79312256 127.63373779 -18.05890137 127.63075684 -19.36303711 127.62768555 C-23.62160338 128.06363329 -26.21937101 129.02097882 -30 131 Z " fill="#000000" transform="translate(348,32)"/>
<path d="M0 0 C1.10064285 -0.00807175 2.20128571 -0.01614349 3.33528137 -0.02445984 C5.66775963 -0.03827087 8.00025784 -0.04900631 10.33276367 -0.05688477 C12.68406224 -0.06832778 15.03533645 -0.08865528 17.38647461 -0.1184082 C49.60762265 -0.52546484 78.13647861 6.45894339 102.70703125 28.23828125 C103.46113281 28.84929687 104.21523437 29.4603125 104.9921875 30.08984375 C126.34593834 47.79048378 138.78379594 75.2436116 142.70703125 102.23828125 C142.80912906 104.4303831 142.86489934 106.62494117 142.8840332 108.81933594 C142.89686844 110.10797546 142.90970367 111.39661499 142.92292786 112.7243042 C142.93109736 114.11958425 142.93854069 115.51486872 142.9453125 116.91015625 C142.94938803 117.62032143 142.95346355 118.3304866 142.95766258 119.06217194 C142.97845327 122.82139283 142.99278497 126.58057798 143.00219727 130.33984375 C143.01324677 134.19743899 143.04764932 138.05445511 143.08736897 141.91184616 C143.11366361 144.90094994 143.12190038 147.88991827 143.12547874 150.8791275 C143.13031165 152.29993857 143.14183014 153.72074495 143.16051674 155.14144135 C143.29617535 166.13853612 142.15605523 175.41344245 134.41015625 183.70703125 C127.21684187 190.17441482 119.77299175 192.54364832 110.15631104 192.50570679 C109.30886125 192.5102379 108.46141147 192.51476901 107.58828139 192.51943743 C104.75573854 192.53207218 101.92338819 192.53046165 99.09082031 192.52880859 C97.05692295 192.53479446 95.02302785 192.54160015 92.98913574 192.54916382 C87.46832235 192.56682617 81.94757097 192.57151934 76.42673206 192.57279539 C72.97558002 192.57421755 69.52444372 192.57848839 66.07329559 192.58378983 C54.0276947 192.60229169 41.98213807 192.61046034 29.93652344 192.60888672 C18.71778149 192.60768565 7.49923204 192.62878085 -3.7194612 192.66037405 C-13.3587337 192.68654962 -22.99794338 192.69725346 -32.63725114 192.6959759 C-38.39100553 192.6954666 -44.14458888 192.70113235 -49.8983078 192.722332 C-55.31236314 192.74173552 -60.72608467 192.74182421 -66.14015198 192.72729874 C-68.12263223 192.7252121 -70.1051335 192.72990282 -72.08757782 192.74201965 C-84.40452281 192.81240087 -95.23096873 192.84276712 -104.76171875 183.94140625 C-110.55313637 177.49993155 -113.52329458 170.50107607 -113.58349609 161.80004883 C-113.60263565 159.91066338 -113.60263565 159.91066338 -113.62216187 157.98310852 C-113.62522349 156.61634476 -113.62744912 155.24957891 -113.62890625 153.8828125 C-113.6353487 152.45716728 -113.64207809 151.03152333 -113.64907837 149.60588074 C-113.66103734 146.61425732 -113.66476152 143.62274913 -113.66357422 140.63110352 C-113.66341284 137.60058416 -113.67710888 134.57067679 -113.70458984 131.5402832 C-114.01226107 97.11605715 -108.8170606 66.77719353 -85.29296875 40.23828125 C-84.68195313 39.48417969 -84.0709375 38.73007812 -83.44140625 37.953125 C-63.45744639 13.84481597 -30.83465363 0.21757681 0 0 Z " fill="#000000" transform="translate(145.29296875,287.76171875)"/>
<path d="M0 0 C1.48372772 1.2445827 2.96303242 2.49446052 4.4375 3.75 C5.67693359 4.69939453 5.67693359 4.69939453 6.94140625 5.66796875 C23.30430479 19.31652106 33.40112595 42.0696593 36.4375 62.75 C38.24847359 93.25678676 32.70138651 118.02452928 12.49658203 141.46459961 C-0.31364244 155.80484555 -17.81640789 166.34345108 -36.5625 170.75 C-37.45195312 170.97300781 -38.34140625 171.19601562 -39.2578125 171.42578125 C-64.80430573 176.7752606 -90.49412159 171.10036191 -112.5625 157.75 C-115.72489856 155.58493474 -118.6525087 153.24128751 -121.5625 150.75 C-122.36171875 150.09515625 -123.1609375 149.4403125 -123.984375 148.765625 C-141.17162047 134.14045339 -152.34337265 113.08484095 -155.5625 90.75 C-156.43511959 75.5194783 -156.82825896 60.22654908 -151.5625 45.75 C-151.17707031 44.68265625 -150.79164063 43.6153125 -150.39453125 42.515625 C-146.0233982 31.36852842 -140.30100213 21.86025974 -132.5625 12.75 C-131.7890625 11.77417969 -131.015625 10.79835938 -130.21875 9.79296875 C-127.50967891 6.54898882 -124.45850458 3.95744444 -121.125 1.375 C-120.51519287 0.90239746 -119.90538574 0.42979492 -119.27709961 -0.05712891 C-84.32866656 -26.56787712 -34.74428539 -27.6001202 0 0 Z " fill="#000000" transform="translate(219.5625,94.25)"/>
</svg>
