<?xml version="1.0" encoding="UTF-8"?>
<svg version="1.1" xmlns="http://www.w3.org/2000/svg" width="90" height="90">
<path d="M0 0 C7.77464789 6.6639839 7.77464789 6.6639839 10.4375 9.4375 C13.49806186 12.55283702 16.72526687 15.40387631 20.03515625 18.25 C21.92322239 19.93161755 23.68092908 21.68257789 25.4375 23.5 C32.56912787 31.10343512 32.56912787 31.10343512 41.875 35 C51.1000843 34.06835782 59.29012875 22.84486139 65.43359375 16.5703125 C68.22498083 13.77467674 71.13878278 11.19625301 74.14453125 8.63671875 C76.77865593 6.3131435 79.21445097 3.81190162 81.65234375 1.28515625 C83 0 83 0 84 0 C84 16.83 84 33.66 84 51 C56.28 51 28.56 51 0 51 C0 34.17 0 17.34 0 0 Z " fill="#FFFFFF" transform="translate(3,21)"/>
<path d="M0 0 C25.08 0 50.16 0 76 0 C73.30008371 3.37489536 71.36133003 5.72475496 68.1875 8.375 C65.51228018 10.6595685 62.96207886 12.98721471 60.5 15.5 C57.47697981 18.57100464 54.3210826 21.42643147 51.04296875 24.22265625 C49.63848259 25.44453236 48.26715157 26.70524586 46.92578125 27.99609375 C44.01180633 30.75465668 41.88882726 32.74075872 38 33.875 C34.84929456 32.95604425 33.72911985 32.08971701 31.3359375 29.9375 C30.63049805 29.30440918 29.92505859 28.67131836 29.19824219 28.01904297 C25.64269876 24.75334504 22.12529274 21.4497772 18.625 18.125 C13.0251865 12.82284693 7.38859242 7.5886659 1.58984375 2.50390625 C1.06519531 2.00761719 0.54054688 1.51132812 0 1 C0 0.67 0 0.34 0 0 Z " fill="#FFFFFF" transform="translate(7,18)"/>
</svg>
