<?xml version="1.0" encoding="UTF-8"?>
<svg version="1.1" xmlns="http://www.w3.org/2000/svg" width="50" height="50">
<path d="M0 0 C3.63 0 7.26 0 11 0 C11 0.66 11 1.32 11 2 C8.03 2 5.06 2 2 2 C2 11.9 2 21.8 2 32 C12.56 32 23.12 32 34 32 C34 22.1 34 12.2 34 2 C31.03 2 28.06 2 25 2 C25 1.34 25 0.68 25 0 C28.63 0 32.26 0 36 0 C36 11.22 36 22.44 36 34 C24.12 34 12.24 34 0 34 C0 22.78 0 11.56 0 0 Z " fill="#FFFFFF" transform="translate(7,16)"/>
<path d="M0 0 C0.66 0 1.32 0 2 0 C2.33 9.57 2.66 19.14 3 29 C4.32 27.68 5.64 26.36 7 25 C7.99 25 8.98 25 10 25 C9.43040847 28.62613199 8.07625466 30.25517741 5.4375 32.75 C4.79683594 33.36359375 4.15617187 33.9771875 3.49609375 34.609375 C2.75552734 35.29773437 2.75552734 35.29773437 2 36 C-0.87806415 34.69235781 -3.00692296 33.28858403 -5.25 31.0625 C-5.77078125 30.55847656 -6.2915625 30.05445312 -6.828125 29.53515625 C-8 28 -8 28 -8 25 C-4.38144425 25.62388892 -3.8290723 26.1709277 -1 29 C-0.67 19.43 -0.34 9.86 0 0 Z " fill="#FFFFFF" transform="translate(24,1)"/>
</svg>
