<?xml version="1.0" encoding="UTF-8"?>
<svg version="1.1" xmlns="http://www.w3.org/2000/svg" width="512" height="512">
<path d="M0 0 C22.03338057 11.51836106 33.23106792 34.2833134 44.1875 55.375 C44.81060059 56.57141113 44.81060059 56.57141113 45.44628906 57.79199219 C51.1875 68.87038445 51.1875 68.87038445 51.1875 71.375 C52.0673375 71.37329126 52.0673375 71.37329126 52.96494949 71.371548 C87.74518699 71.30438348 122.52541152 71.25292502 157.30570012 71.22180401 C161.4837481 71.21805199 165.66179596 71.21416901 169.83984375 71.21020508 C170.67160217 71.20941815 171.50336058 71.20863122 172.3603238 71.20782044 C185.82012994 71.19477391 199.27989757 71.17112422 212.73968087 71.14354161 C226.55525836 71.11546645 240.37081571 71.09881928 254.18642056 71.09273452 C262.70831562 71.08862245 271.23010179 71.07564451 279.75196333 71.0512506 C285.59927359 71.03536735 291.44652772 71.03060549 297.29385798 71.03449587 C300.66525733 71.03641342 304.03631384 71.03186617 307.40770531 71.01738358 C311.06963292 71.00242558 314.73109722 71.00605898 318.39303589 71.01423645 C319.44948205 71.00549793 320.50592821 70.9967594 321.59438789 70.98775607 C331.97222398 71.0502583 341.27015338 73.39622984 349.1875 80.375 C355.51512071 87.81368044 357.49500698 95.37757407 357.44819641 104.97677612 C357.45202196 105.81761879 357.45584751 106.65846146 357.45978898 107.52478421 C357.47006851 110.32892452 357.46613645 113.13285813 357.4621582 115.93701172 C357.46650748 117.95297433 357.47169135 119.96893529 357.47764587 121.9848938 C357.49102413 127.45187004 357.49161582 132.91877709 357.48908257 138.38576651 C357.48801204 142.95330839 357.49289837 147.52083632 357.497688 152.08837521 C357.5087792 162.86605635 357.5092228 173.64370264 357.50317383 184.42138672 C357.49713398 195.53164333 357.50944628 206.64177331 357.5307439 217.75200832 C357.54836992 227.29871612 357.55435966 236.84538366 357.55110615 246.39210713 C357.54929471 252.09044852 357.55191573 257.78869958 357.56582069 263.48702621 C357.57841058 268.84687991 357.57644383 274.20653645 357.56340981 279.56638718 C357.56104699 281.52993334 357.5637681 283.49349343 357.57203293 285.45702362 C357.58252714 288.14466175 357.57437837 290.83164159 357.5617218 293.51925659 C357.56909609 294.28980153 357.57647037 295.06034647 357.58406812 295.85424125 C357.48828147 305.57283673 354.25842753 312.22100598 347.6015625 319.203125 C342.0693476 324.18032805 335.88201857 326.48343656 328.48817444 326.52217102 C327.54751633 326.52932632 326.60685822 326.53648163 325.63769531 326.54385376 C324.61264893 326.54654266 323.58760254 326.54923157 322.53149414 326.55200195 C321.4465416 326.55857315 320.36158905 326.56514435 319.24375916 326.57191467 C315.65339082 326.59162682 312.0630642 326.60330346 308.47265625 326.61328125 C306.63404935 326.61939454 306.63404935 326.61939454 304.75829887 326.62563133 C298.94320818 326.64433123 293.12813389 326.65890185 287.31301886 326.6672433 C281.27407361 326.67604995 275.23537908 326.69538131 269.1965332 326.73168945 C262.71448876 326.7700437 256.23267074 326.78892225 249.75051689 326.79344749 C247.27893268 326.79832616 244.80735232 326.80997628 242.3358326 326.82848549 C238.8812525 326.85275623 235.42753911 326.85193399 231.97290039 326.8449707 C230.94987823 326.85778076 229.92685608 326.87059082 228.87283325 326.88378906 C224.44679109 326.85121424 221.91315813 326.820939 218.0778656 324.46403503 C215.23710676 321.32472444 214.36786454 318.57827808 214.1875 314.375 C215.2470601 310.57304906 216.13781029 308.26200073 219.16992188 305.6998291 C223.57827282 303.76439897 227.6412955 303.95988672 232.40625 303.99023438 C233.94611572 303.98217522 233.94611572 303.98217522 235.51708984 303.97395325 C237.74273803 303.96418052 239.96842429 303.96122956 242.1940918 303.96430969 C245.71616823 303.96878644 249.23774191 303.95479142 252.75976562 303.93591309 C261.50583392 303.89287881 270.25189128 303.88187785 278.99804688 303.86968994 C286.39097732 303.85816818 293.78367884 303.83462436 301.17651367 303.79499817 C304.64706988 303.78140831 308.11731816 303.7856023 311.58789062 303.79040527 C313.71484777 303.78106589 315.84180148 303.77089738 317.96875 303.75976562 C318.93409668 303.76591385 319.89944336 303.77206207 320.89404297 303.77839661 C321.78559082 303.77019394 322.67713867 303.76199127 323.59570312 303.75354004 C324.75156921 303.75247128 324.75156921 303.75247128 325.93078613 303.75138092 C329.06340861 303.22891356 330.76861543 302.46030251 333.1875 300.375 C333.69121929 297.69447471 333.84344062 295.63668986 333.78877258 292.95295715 C333.79304471 292.19085314 333.79731683 291.42874913 333.80171841 290.64355105 C333.80997501 288.08184367 333.7824214 285.52176235 333.75512695 282.96020508 C333.75371705 281.12727395 333.75450733 279.29434 333.75733948 277.46141052 C333.7587773 272.47802999 333.72932837 267.49524809 333.69446969 262.512007 C333.66326706 257.30700078 333.66028027 252.10198167 333.65434265 246.89689636 C333.63878627 237.03705824 333.59773349 227.17749648 333.5475952 217.3177802 C333.49175757 206.09426307 333.46422928 194.87073292 333.43911803 183.64711154 C333.38681925 160.55625432 333.29884207 137.46564263 333.1875 114.375 C332.36212738 115.06465347 331.53675476 115.75430695 330.68637085 116.46485901 C329.59350648 117.3770698 328.50061998 118.28925407 327.40771484 119.20141602 C326.86489365 119.65509804 326.32207245 120.10878006 325.76280212 120.57621002 C322.16985777 123.57380044 318.54173845 126.48747416 314.8125 129.3125 C313.71956223 130.14519078 312.62713257 130.97854879 311.53515625 131.8125 C310.98617676 132.23144531 310.43719727 132.65039062 309.87158203 133.08203125 C306.97957173 135.30239752 304.11460487 137.55695272 301.25 139.8125 C300.66879395 140.27003662 300.08758789 140.72757324 299.48876953 141.19897461 C298.31024369 142.12710036 297.13185851 143.05540476 295.95361328 143.98388672 C293.03378952 146.28374237 290.11048107 148.57915945 287.1875 150.875 C286.02081639 151.7916451 284.85414973 152.70831177 283.6875 153.625 C262.6875 170.125 241.6875 186.625 220.6875 203.125 C219.8207666 203.8061084 219.8207666 203.8061084 218.93652344 204.50097656 C217.77338317 205.41473333 216.60997295 206.32814658 215.44628906 207.24121094 C212.4733266 209.57461173 209.50573498 211.9143598 206.546875 214.265625 C180.59630593 234.86048293 180.59630593 234.86048293 165.1875 234.375 C151.33899322 232.64848013 141.64395374 224.11143223 131.20703125 215.61328125 C127.12175947 212.29794535 122.94424685 209.11311668 118.75 205.9375 C112.37127506 201.09649044 106.12523508 196.11725554 99.93041992 191.04370117 C94.82614755 186.87081456 89.63502035 182.83186201 84.39453125 178.83203125 C79.20319089 174.8670672 74.08420434 170.80912666 68.95361328 166.76611328 C66.61502039 164.92407536 64.27420922 163.08487226 61.93286133 161.24633789 C60.77449107 160.3362014 59.6167697 159.42523839 58.4597168 158.51342773 C55.43200488 156.12887536 52.39328017 153.76053838 49.3359375 151.4140625 C48.70429688 150.92615234 48.07265625 150.43824219 47.421875 149.93554688 C46.21986889 149.00752745 45.01435851 148.08402151 43.8046875 147.16601562 C40.41487492 144.53971036 37.72609228 141.82996217 35.1875 138.375 C34.62764404 138.70298584 34.06778809 139.03097168 33.4909668 139.36889648 C30.95398901 140.85298771 28.41453332 142.33278636 25.875 143.8125 C24.99392578 144.32876953 24.11285156 144.84503906 23.20507812 145.37695312 C21.93374023 146.11655273 21.93374023 146.11655273 20.63671875 146.87109375 C19.85643311 147.32669678 19.07614746 147.7822998 18.2722168 148.25170898 C16.1875 149.375 16.1875 149.375 13.1875 150.375 C12.03320354 152.19837014 12.03320354 152.19837014 11.1875 154.375 C10.90648437 155.02597656 10.62546875 155.67695313 10.3359375 156.34765625 C6.75183084 166.03198485 7.50713908 174.84348615 11.1875 184.375 C13.24574697 188.49256261 15.57300154 192.42703787 17.9375 196.375 C18.94949577 198.0957497 19.96147473 199.81650956 20.97242737 201.53787231 C22.01674974 203.31324029 23.06547789 205.08594994 24.11474609 206.85839844 C27.37554322 212.37719723 30.55672525 217.94197357 33.75 223.5 C38.71686943 232.11128057 43.69298392 240.7172237 48.6875 249.3125 C49.23865479 250.26463379 49.78980957 251.21676758 50.35766602 252.19775391 C53.68950024 257.92028901 57.16344927 263.52188793 60.78710938 269.06469727 C62.1875 271.375 62.1875 271.375 63.1875 274.375 C65.03192515 275.46164524 65.03192515 275.46164524 67.1875 276.375 C68.50868136 277.19450016 69.82117453 278.0281589 71.125 278.875 C76.57635677 282.2946703 82.47389529 285.37231455 89.12255859 283.96557617 C96.87462796 281.46885521 103.54202764 277.29910833 110.484375 273.11328125 C121.78614266 266.49280877 132.71835296 263.68061724 145.75 266.0625 C172.19113273 272.98867282 187.48727733 300.95076917 200.53808594 322.6171875 C209.47298934 337.9129089 216.97924983 355.34824866 215.1875 373.375 C213.22931218 380.81409495 210.01434962 386.78063469 203.359375 390.91015625 C201.89129312 391.76280345 200.41712723 392.60504885 198.9375 393.4375 C198.21175781 393.85837891 197.48601562 394.27925781 196.73828125 394.71289062 C184.33749824 401.84168299 171.7548118 406.4937273 157.8125 409.625 C157.08820801 409.78806641 156.36391602 409.95113281 155.61767578 410.11914062 C118.40875631 418.09551105 80.12695365 408.44020057 48.51171875 388.26171875 C37.10331687 380.76620962 27.02471444 371.79743379 17.1875 362.375 C16.43726563 361.66601562 15.68703125 360.95703125 14.9140625 360.2265625 C-5.37852134 340.57564139 -19.07243947 315.26376612 -32.98828125 291.0234375 C-36.56790935 284.79052429 -40.18413164 278.57963331 -43.8125 272.375 C-50.64579158 260.678812 -57.43434985 248.95737927 -64.17919922 237.20996094 C-65.58984689 234.76146457 -67.01234838 232.32058405 -68.44140625 229.8828125 C-93.15738688 187.41721202 -105.80400623 135.72053082 -93.55859375 87.26171875 C-90.5830176 76.25532018 -86.33046122 66.32546692 -80.8125 56.375 C-80.235 55.29605469 -79.6575 54.21710938 -79.0625 53.10546875 C-75.04058838 45.85299387 -70.26506546 39.60650338 -64.8125 33.375 C-63.97847656 32.3953125 -63.14445312 31.415625 -62.28515625 30.40625 C-48.69646949 14.74081123 -22.19427424 -9.33476456 0 0 Z M-38.11328125 38.671875 C-39.00402344 39.56390625 -39.89476562 40.4559375 -40.8125 41.375 C-41.67230469 42.16390625 -42.53210938 42.9528125 -43.41796875 43.765625 C-61.92063902 61.09215654 -73.70232678 87.58038567 -74.98950195 112.84985352 C-75.28421566 130.42347914 -75.20001104 147.22443602 -70.8125 164.375 C-70.60882813 165.19645508 -70.40515625 166.01791016 -70.1953125 166.86425781 C-63.09794212 194.7608664 -48.69199752 219.3133453 -34.07226562 243.81665039 C-29.18505095 252.01383638 -24.40660196 260.26751192 -19.6875 268.5625 C1.04838026 305.67195321 1.04838026 305.67195321 27.1015625 339.1015625 C29.0397255 341.2139424 30.89773271 343.37498072 32.75 345.5625 C36.25038104 349.56867005 40.09288698 352.98892657 44.1875 356.375 C44.92613281 357.00148438 45.66476563 357.62796875 46.42578125 358.2734375 C72.01695065 379.4667791 104.69412555 393.22440055 138.34082031 390.18017578 C155.99345404 388.31578315 179.10687456 383.45562544 192.1875 370.375 C194.03361223 347.85243082 174.72025411 321.70740937 161.3125 305 C159.9564364 303.44165067 158.58289161 301.89823451 157.1875 300.375 C156.53652344 299.6325 155.88554687 298.89 155.21484375 298.125 C150.7375179 293.28272314 145.68481385 289.04261351 139.1875 287.375 C130.39773238 287.1938566 124.1728949 291.34679751 116.8125 295.75 C102.85808159 304.06360117 90.63628266 308.78380462 74.25 305.3125 C55.24300377 299.97066446 44.60336276 287.80273996 35.1875 271.375 C34.60194336 270.35873535 34.01638672 269.3424707 33.41308594 268.29541016 C30.01342373 262.38704958 26.63541525 256.46671744 23.26953125 250.5390625 C19.60142162 244.08185629 15.87557945 237.65969213 12.125 231.25 C11.28557861 229.80995605 11.28557861 229.80995605 10.42919922 228.34082031 C7.6885886 223.6406143 4.93713435 218.94755906 2.15730286 214.27041626 C1.12370317 212.52783681 0.09527064 210.78231616 -0.93139648 209.03564453 C-2.2252309 206.83595281 -3.52752115 204.64120239 -4.84008789 202.45263672 C-13.77372733 187.19379076 -16.99189756 171.60320105 -12.94921875 154.24609375 C-9.3996029 141.13050854 -2.02983201 133.23146827 9.48046875 126.62109375 C12.35927743 125.01588983 15.24583587 123.42663419 18.14135742 121.85180664 C28.9343004 116.28690261 28.9343004 116.28690261 35.1875 106.375 C36.9568499 91.13331441 30.21664827 77.41469511 23.23144531 64.34082031 C22.20189617 62.40210897 21.20328097 60.4501613 20.2109375 58.4921875 C13.16814954 44.72977192 4.20075442 27.89430725 -9.8125 20.375 C-19.29675836 20.375 -31.63036875 32.2662467 -38.11328125 38.671875 Z M57.1875 94.375 C57.1875 97.675 57.1875 100.975 57.1875 104.375 C56.14496807 110.79285615 54.34002327 116.67043408 51.1875 122.375 C51.1875 123.035 51.1875 123.695 51.1875 124.375 C53.4853161 126.22364194 55.79729405 127.96510127 58.1875 129.6875 C64.0405357 133.98440004 69.76536723 138.38969009 75.375 143 C81.1650894 147.74978136 87.02758613 152.37439989 92.98046875 156.91796875 C98.17180911 160.8829328 103.29079566 164.94087334 108.42138672 168.98388672 C111.34121048 171.28374237 114.26451893 173.57915945 117.1875 175.875 C118.35418361 176.7916451 119.52085027 177.70831177 120.6875 178.625 C121.265 179.07875 121.8425 179.5325 122.4375 180 C127.6875 184.125 127.6875 184.125 129.43847656 185.50097656 C130.60161683 186.41473333 131.76502705 187.32814658 132.92871094 188.24121094 C135.9016734 190.57461173 138.86926502 192.9143598 141.828125 195.265625 C144.73897145 197.57628077 147.66217664 199.8700009 150.60058594 202.14550781 C152.07384243 203.28694161 153.54108764 204.43612272 155.0078125 205.5859375 C160.1288099 209.42277041 163.68646456 211.68956623 170.1875 211.375 C177.93101315 208.70482305 184.04348614 202.95772887 190.34082031 197.86279297 C193.26736322 195.50499915 196.22828114 193.19154341 199.1875 190.875 C200.35434755 189.9585636 201.52101391 189.04189644 202.6875 188.125 C293.6875 116.625 293.6875 116.625 295.44018555 115.24804688 C296.59810406 114.33814975 297.75582143 113.42799659 298.91333008 112.51757812 C301.96218004 110.12011833 305.01516499 107.72818064 308.07421875 105.34375 C308.71037109 104.84681641 309.34652344 104.34988281 310.00195312 103.83789062 C311.21941788 102.88702399 312.43810262 101.93771659 313.65820312 100.99023438 C316.34013118 98.89311126 318.77361372 96.78888628 321.1875 94.375 C234.0675 94.375 146.9475 94.375 57.1875 94.375 Z " fill="#ffffff" transform="translate(130.8125,47.625)"/>
</svg>
