<?xml version="1.0" encoding="UTF-8"?>
<svg version="1.1" xmlns="http://www.w3.org/2000/svg" width="880" height="880">
<path d="M0 0 C1.04285156 0.56460938 2.08570313 1.12921875 3.16015625 1.7109375 C8.90801631 4.93700915 14.36096716 8.52616362 19.75 12.3125 C20.68223389 12.9619458 20.68223389 12.9619458 21.63330078 13.62451172 C23.12796002 14.69719927 24.56982066 15.8427395 26 17 C26 17.66 26 18.32 26 19 C26.58394531 19.26159912 27.16789063 19.52319824 27.76953125 19.79272461 C40.8240965 26.8587081 51.34951035 42.62709271 59 55 C59.41185547 55.66402832 59.82371094 56.32805664 60.24804688 57.01220703 C70.31608067 73.65220292 76.28361932 92.8057398 79 112 C79.18175781 113.00675781 79.36351562 114.01351562 79.55078125 115.05078125 C82.2566438 138.83884249 80.13400877 163.48622571 72 186 C71.608125 187.11632812 71.21625 188.23265625 70.8125 189.3828125 C68.89684101 194.61306567 66.75476816 199.5401342 64.10253906 204.4284668 C60.54679512 211.05419247 59.14535022 214.78747308 61 222 C61.55901154 224.78480062 62.06282586 227.57900917 62.5625 230.375 C62.7625061 231.49068359 62.7625061 231.49068359 62.96655273 232.62890625 C64.92680755 243.92554277 64.89269901 254.27810104 58.52734375 264.32421875 C54.26329224 269.61648126 48.96068884 272.86489733 43 276 C42.09121094 276.56267578 42.09121094 276.56267578 41.1640625 277.13671875 C38.00386816 278.39737389 34.91784603 278.42467405 31.5625 278.4375 C30.82894287 278.44209229 30.09538574 278.44668457 29.33959961 278.45141602 C22.12138602 278.31206826 15.39675234 276.69233563 8.48461914 274.69116211 C-2.39547834 271.6806035 -10.48774741 274.2574894 -20.75 278.3125 C-59.00476344 292.54558843 -101.38976165 290.21918149 -138.5 273.375 C-153.7335852 266.09783215 -166.46442382 256.2766305 -178.45214844 244.49462891 C-181.02179295 242.01334125 -183.74142106 239.71548245 -186.484375 237.4296875 C-188.36943568 235.6515117 -189.74517544 234.29521708 -191 232 C-191.0859375 228.5234375 -191.0859375 228.5234375 -190 225 C-187.82369143 223.16699645 -186.0728364 221.95864218 -183.625 220.625 C-182.33792815 219.86086262 -181.05410346 219.09123176 -179.7734375 218.31640625 C-179.13374023 217.93242676 -178.49404297 217.54844727 -177.83496094 217.15283203 C-152.98821448 201.54262224 -138.9268941 175.75025973 -132 148 C-126.90377731 123.52343043 -130.10400216 97.47978292 -141 75 C-141.48082031 73.94167969 -141.96164062 72.88335937 -142.45703125 71.79296875 C-146.63970359 62.90846334 -151.71657011 55.52651958 -158 48 C-159.08087891 46.67162109 -159.08087891 46.67162109 -160.18359375 45.31640625 C-166.0074548 38.46669078 -172.76603943 33.25496363 -180 28 C-179.05836147 21.85887913 -173.70536915 18.52248832 -169 15 C-118.65582996 -20.36202902 -55.34270248 -30.55426933 0 0 Z M-73.3125 72.0625 C-76.16504223 75.60053687 -76.77888254 78.35935235 -76.46484375 82.85546875 C-75.73998494 86.19956529 -74.16675701 88.39989159 -72 91 C-71.505 91.598125 -71.01 92.19625 -70.5 92.8125 C-67.3023904 95.34394094 -63.16267105 95.507177 -59.16796875 95.4921875 C-54.87053962 94.51655494 -51.88582822 91.18088797 -49 88 C-47.10292953 84.20585906 -47.24605657 80.11078682 -48 76 C-50.29315773 72.30813611 -53.06995515 68.96502242 -57 67 C-63.8897619 66.66115925 -68.27993936 66.99474663 -73.3125 72.0625 Z M-85 117 C-86.85841372 119.86505448 -87 121.59934985 -87 125 C-85.58061525 129.25815425 -83.82021689 130.6805826 -80 133 C-77.03 133 -74.06 133 -71 133 C-71 155.44 -71 177.88 -71 201 C-76.28 201 -81.56 201 -87 201 C-91.21998721 204.89975772 -91.21998721 204.89975772 -92.375 209.8125 C-91.87287557 214.08055764 -90.30889102 215.3679276 -87 218 C-84.17559838 218.9315241 -81.56422622 219.13836248 -78.60205078 219.17700195 C-77.74080597 219.18983719 -76.87956116 219.20267242 -75.99221802 219.21589661 C-74.60774979 219.22697701 -74.60774979 219.22697701 -73.1953125 219.23828125 C-72.23857635 219.246353 -71.28184021 219.25442474 -70.29611206 219.26274109 C-68.27376098 219.2765564 -66.25138684 219.28728994 -64.22900391 219.29516602 C-61.14310495 219.31239889 -58.05827217 219.3563104 -54.97265625 219.40039062 C-53.00521619 219.41051658 -51.03776705 219.41903299 -49.0703125 219.42578125 C-48.15138214 219.44328934 -47.23245178 219.46079742 -46.28567505 219.47883606 C-40.6903744 219.45996747 -37.39761785 218.80779844 -33 215 C-30.72108285 212.2019983 -30.72108285 212.2019983 -31.0625 209.125 C-31.95414213 205.2556915 -31.95414213 205.2556915 -37 201 C-41.95 201 -46.9 201 -52 201 C-52 178.56 -52 156.12 -52 133 C-49.36 133 -46.72 133 -44 133 C-41.34316811 131.50251293 -39.15347249 130.15347249 -37 128 C-36.85464004 124.88424095 -37.13372763 121.99782743 -38 119 C-44.69829023 113.1753998 -51.71602336 113.78263037 -60.08642578 113.75976562 C-62.22859066 113.75009663 -64.36978041 113.71907891 -66.51171875 113.6875 C-67.88801518 113.68096549 -69.26431842 113.67571678 -70.640625 113.671875 C-71.88360352 113.6625293 -73.12658203 113.65318359 -74.40722656 113.64355469 C-78.63308359 114.06280933 -81.24264399 115.05282548 -85 117 Z " fill="#FFFFFF" transform="translate(441,56)"/>
<path d="M0 0 C7.05822155 -0.0949277 14.11062361 -0.06633914 21.16845703 0.04589844 C22.47145752 0.06475098 22.47145752 0.06475098 23.80078125 0.08398438 C51.70499975 0.62049868 77.77999103 8.82488465 99.16845703 27.04589844 C100.21697522 27.87948214 101.26789201 28.71005495 102.32080078 29.53808594 C110.27964472 35.88857529 116.31874097 42.73652115 122.16845703 51.04589844 C122.71888672 51.7690625 123.26931641 52.49222656 123.83642578 53.23730469 C134.64307188 68.04212011 142.22799443 89.73209553 142.32958984 108.02001953 C142.33455475 108.70200912 142.33951965 109.38399872 142.34463501 110.08665466 C142.35917654 112.33089221 142.36604462 114.57505912 142.37158203 116.81933594 C142.37733939 118.38725789 142.38309705 119.95517985 142.38885498 121.52310181 C142.3993417 124.80642015 142.40519981 128.08971416 142.40869141 131.37304688 C142.41417602 135.56826941 142.43821301 139.7631674 142.46666336 143.95828819 C142.4853377 147.19604416 142.49049785 150.4337226 142.49202728 153.67152786 C142.49504273 155.21760459 142.50303363 156.76368032 142.51621246 158.30970383 C142.53337678 160.47771308 142.53136819 162.6449376 142.52490234 164.81298828 C142.52854797 166.04367035 142.5321936 167.27435242 142.53594971 168.54232788 C141.68862831 176.62044884 137.09617489 184.18324097 131.35595703 189.79589844 C124.58249168 194.5771681 119.31083397 196.64409932 110.99758911 196.56729126 C110.10759496 196.57494235 109.2176008 196.58259345 108.30063713 196.59047639 C105.3359225 196.61101721 102.37199122 196.60317565 99.40722656 196.59521484 C97.27450854 196.60391448 95.14179676 196.61428259 93.00909424 196.62619019 C87.22801851 196.65293511 81.44720457 196.6541315 75.66607904 196.64906359 C70.83512076 196.64692175 66.00421518 196.65669708 61.1732682 196.66627443 C49.77367503 196.6884527 38.37421367 196.68934637 26.97460938 196.67724609 C15.22517242 196.66516601 3.47621445 196.68979231 -8.27314079 196.73238623 C-18.37107036 196.76764363 -28.46884764 196.77961698 -38.56683648 196.77311075 C-44.59337461 196.76948871 -50.61957106 196.7747205 -56.64605331 196.80253983 C-62.31472059 196.82772908 -67.98264242 196.82377871 -73.65129852 196.79771805 C-75.72730641 196.79299435 -77.80336702 196.79842802 -79.87931442 196.81496429 C-91.77066391 196.90282979 -100.66325647 196.94421855 -109.67643547 188.27048683 C-115.44095556 182.24420473 -118.92851034 174.70678673 -119.00854492 166.39477539 C-119.02138016 165.23117996 -119.03421539 164.06758453 -119.04743958 162.86872864 C-119.05482651 161.60332748 -119.06221344 160.33792633 -119.06982422 159.03417969 C-119.07789597 157.71918991 -119.08596771 156.40420013 -119.09428406 155.04936218 C-119.10932935 152.24913667 -119.11914824 149.4489365 -119.12670898 146.64868164 C-119.13544092 143.82586207 -119.15599585 141.0035556 -119.18823242 138.1809082 C-119.57861826 103.20991716 -115.30086062 72.06725221 -92.83154297 44.04589844 C-92.37473145 43.4687207 -91.91791992 42.89154297 -91.44726562 42.296875 C-84.7288793 33.87212335 -77.88632104 27.03974254 -68.83154297 21.04589844 C-67.84927734 20.37171875 -66.86701172 19.69753906 -65.85498047 19.00292969 C-45.4707809 5.66289022 -24.02910999 0.38950446 0 0 Z " fill="#FFFFFF" transform="translate(184.83154296875,295.9541015625)"/>
<path d="M0 0 C0.56299805 0.4012207 1.12599609 0.80244141 1.70605469 1.21582031 C18.28077291 13.03880629 29.50999352 27.72156748 36 47 C36.57041016 48.47919922 36.57041016 48.47919922 37.15234375 49.98828125 C40.00795617 57.66083419 40.95538565 64.84758601 41 73 C41.0093457 73.93183105 41.01869141 74.86366211 41.02832031 75.82373047 C41.12557799 103.97982896 33.8159466 130.46619474 13.8671875 151.21875 C11.97046685 152.91464141 10.03533734 154.47453331 8 156 C7.37738281 156.495 6.75476563 156.99 6.11328125 157.5 C-16.43391775 175.06211849 -41.79967847 182.67574313 -70.22143555 179.22827148 C-94.53731872 175.91298995 -118.0587003 163.95876 -134 145 C-145.77769027 129.39731218 -155.68707271 110.95513279 -156 91 C-156.01369629 90.22962402 -156.02739258 89.45924805 -156.04150391 88.66552734 C-156.13769527 82.44090296 -156.09912889 76.22425096 -156 70 C-155.99226563 68.41445312 -155.99226563 68.41445312 -155.984375 66.796875 C-155.24470545 49.57314126 -145.27277747 32.20511881 -135 19 C-134.2678125 18.03964844 -133.535625 17.07929687 -132.78125 16.08984375 C-128.73232433 10.87465144 -128.73232433 10.87465144 -127 9 C-126.34 9 -125.68 9 -125 9 C-125 8.34 -125 7.68 -125 7 C-122.66165215 5.16880032 -120.32968538 3.47573835 -117.875 1.8125 C-117.14869385 1.31927246 -116.4223877 0.82604492 -115.67407227 0.31787109 C-80.68714009 -23.00675035 -34.60450868 -25.51226225 0 0 Z " fill="#FFFFFF" transform="translate(254,99)"/>
</svg>
