<svg width="880" height="880" viewBox="0 0 880 880" fill="none" xmlns="http://www.w3.org/2000/svg">
<path d="M36.0938 0C302.672 0 569.25 0 843.906 0C843.906 266.578 843.906 533.156 843.906 807.812C626.106 807.812 408.306 807.812 183.906 807.812C183.906 831.634 183.906 855.456 183.906 880C177.815 877.563 174.141 876.046 169.136 872.407C168.039 871.634 166.942 870.862 165.812 870.067C163.542 868.446 161.282 866.813 159.031 865.166C152.715 860.683 152.715 860.683 145.308 859.12C138.586 862.156 132.822 866.336 126.865 870.654C124.411 872.418 121.951 874.175 119.487 875.925C118.407 876.706 117.328 877.487 116.216 878.292C113.438 880 113.438 880 110 880C110 856.178 110 832.356 110 807.812C85.6109 807.812 61.2219 807.812 36.0938 807.812C36.0938 541.234 36.0938 274.656 36.0938 0ZM110 73.9062C110 291.139 110 508.372 110 732.188C286.962 732.188 463.925 732.188 646.25 732.188C646.25 514.955 646.25 297.722 646.25 73.9062C469.288 73.9062 292.325 73.9062 110 73.9062ZM721.875 73.9062C721.875 130.058 721.875 186.209 721.875 244.062C737.756 244.062 753.637 244.062 770 244.062C770 187.911 770 131.759 770 73.9062C754.119 73.9062 738.238 73.9062 721.875 73.9062ZM721.875 317.969C721.875 374.12 721.875 430.272 721.875 488.125C737.756 488.125 753.637 488.125 770 488.125C770 431.973 770 375.822 770 317.969C754.119 317.969 738.238 317.969 721.875 317.969ZM721.875 563.75C721.875 619.334 721.875 674.919 721.875 732.188C737.756 732.188 753.637 732.188 770 732.188C770 676.603 770 621.019 770 563.75C754.119 563.75 738.238 563.75 721.875 563.75Z" fill="white"/>
<path d="M367.812 280.156C376.888 280.05 385.962 279.944 395.312 279.834C398.148 279.787 400.984 279.74 403.906 279.692C420.823 279.526 434.628 280.427 447.661 292.416C454.022 300.114 456.739 309.157 457.939 318.936C456.484 330.373 453.493 340.569 445.156 348.906C444.022 348.906 442.888 348.906 441.719 348.906C442.396 350.086 443.072 351.265 443.77 352.481C446.818 357.802 449.854 363.129 452.891 368.457C453.956 370.314 455.022 372.17 456.12 374.083C457.632 376.742 457.632 376.742 459.175 379.454C460.111 381.092 461.047 382.731 462.011 384.418C464.062 388.437 464.062 388.437 464.062 391.875C452.152 391.875 440.241 391.875 427.969 391.875C423.715 384.324 423.715 384.324 419.375 376.621C418.478 375.037 417.58 373.453 416.656 371.822C415.958 370.574 415.26 369.326 414.541 368.041C413.821 366.763 413.101 365.485 412.359 364.168C410.781 360.937 410.781 360.937 410.781 357.5C407.378 357.5 403.975 357.5 400.469 357.5C400.469 368.844 400.469 380.187 400.469 391.875C389.692 391.875 378.916 391.875 367.812 391.875C367.812 355.008 367.812 318.141 367.812 280.156ZM400.469 307.656C400.469 315.03 400.469 322.403 400.469 330C403.482 330.106 406.495 330.213 409.6 330.322C411.295 330.382 412.989 330.442 414.736 330.504C419.389 330.387 419.389 330.387 422.517 327.717C425.696 323.182 425.299 319.908 424.531 314.531C422.393 310.098 422.393 310.098 417.656 307.656C411.8 307.087 406.379 307.345 400.469 307.656Z" fill="white"/>
<path d="M331.719 288.75C342.619 296.825 351.658 309.599 354.062 323.125C355.498 343.13 353.896 358.414 340.957 374.365C331.737 384.139 319.048 391.293 305.494 392.285C292.187 392.54 281.393 392.275 269.844 385C268.647 384.291 267.451 383.582 266.218 382.852C254.564 375.141 248.526 364.361 243.418 351.592C240.099 332.676 242.9 316.271 253.838 300.244C273.207 276.424 305.985 273.624 331.719 288.75ZM283.594 312.813C275.266 321.579 274.402 328.978 274.51 340.662C275.383 349.225 279.024 354.446 284.883 360.723C290.597 363.58 296.174 364.583 302.5 364.375C309.68 361.751 315.059 358.459 319.687 352.344C323.186 342.515 324.531 333.261 321.406 323.125C317.531 316.674 313.179 312.236 306.582 308.623C297.503 306.473 291.655 308.638 283.594 312.813Z" fill="white"/>
<path d="M321.406 424.531C323.746 425.967 323.746 425.967 326.133 427.432C337.571 439.187 344.182 453.919 344.502 470.293C344.213 486.385 339.679 499.488 328.604 511.328C315.362 523.213 299.946 528.335 282.05 527.394C265.125 524.905 252.762 517.628 241.88 504.467C232.337 490.636 229.803 475.431 232.031 458.906C236.502 441.972 245.537 429.824 260.283 420.449C280.975 411.011 302.099 412.41 321.406 424.531ZM269.844 450.312C262.997 459.442 263.306 470.307 264.687 481.25C267.463 487.357 267.463 487.357 271.562 491.562C272.449 492.59 273.335 493.619 274.248 494.678C280.101 499.513 286.711 499.037 293.906 498.437C300.888 495.934 305.033 492.92 309.16 486.728C313.09 475.593 313.687 466.445 309.375 455.469C305.442 449.438 302.221 446.182 295.625 443.437C285.249 441.815 277.826 443.091 269.844 450.312Z" fill="white"/>
<path d="M583.945 423.994C595.16 432.019 604.089 443.417 606.719 457.187C608.866 477.399 606.393 492.486 593.526 509.012C581.713 521.857 567.186 526.59 550 527.656C533.91 526.811 520.397 521.131 509.18 509.502C498.845 496.662 493.468 482.2 494.288 465.694C496.858 447.387 505.283 434.617 519.492 423.135C539.431 409.872 564.191 411.81 583.945 423.994ZM532.812 450.312C526.294 459.222 526.485 468.915 527.656 479.531C530.312 486.835 533.75 491.709 539.687 496.719C547.747 499.405 554.327 499.337 562.353 496.504C569.144 491.977 572.852 487.371 575.043 479.404C576.665 469.514 575.312 460.924 570.625 452.031C564.473 446.03 559.814 443.176 551.289 442.9C543.287 443.016 538.866 444.836 532.812 450.312Z" fill="white"/>
<path d="M149.531 280.156C211.07 280.156 211.07 280.156 222.075 288.025C231.086 297.409 235.66 305.565 236.113 318.828C235.7 331.442 231.324 340.576 222.813 349.745C211.288 360.39 196.849 357.889 182.188 357.5C182.188 368.844 182.188 380.187 182.188 391.875C171.411 391.875 160.634 391.875 149.531 391.875C149.531 355.008 149.531 318.141 149.531 280.156ZM182.188 307.656C182.188 315.03 182.188 322.403 182.188 330C186.335 330.106 186.335 330.106 190.566 330.215C192.122 330.255 193.677 330.295 195.28 330.336C199.698 330.418 199.698 330.418 202.812 326.562C203.923 317.669 203.923 317.669 200.704 309.818C196.757 307.018 194.389 307.126 189.6 307.334C187.154 307.44 184.708 307.547 182.188 307.656Z" fill="white"/>
<path d="M149.531 415.938C175.055 415.938 200.578 415.938 226.875 415.938C226.875 425.013 226.875 434.087 226.875 443.438C212.128 443.438 197.381 443.438 182.188 443.438C182.188 448.542 182.188 453.647 182.188 458.906C194.098 458.906 206.009 458.906 218.281 458.906C218.281 467.414 218.281 475.922 218.281 484.688C206.37 484.688 194.459 484.688 182.188 484.688C182.188 498.3 182.188 511.913 182.188 525.938C171.411 525.938 160.634 525.938 149.531 525.938C149.531 489.637 149.531 453.338 149.531 415.938Z" fill="white"/>
<path d="M465.781 280.156C496.977 280.156 528.172 280.156 560.312 280.156C560.312 289.231 560.312 298.306 560.312 307.656C549.536 307.656 538.759 307.656 527.656 307.656C527.656 335.448 527.656 363.241 527.656 391.875C517.447 391.875 507.237 391.875 496.719 391.875C496.719 364.083 496.719 336.291 496.719 307.656C486.509 307.656 476.3 307.656 465.781 307.656C465.781 298.581 465.781 289.506 465.781 280.156Z" fill="white"/>
<path d="M357.5 415.938C368.277 415.938 379.053 415.938 390.156 415.938C390.156 443.163 390.156 470.388 390.156 498.438C406.037 498.438 421.919 498.438 438.281 498.438C438.281 507.513 438.281 516.587 438.281 525.938C411.623 525.938 384.966 525.938 357.5 525.938C357.5 489.637 357.5 453.338 357.5 415.938Z" fill="white"/>
<path d="M450.312 415.938C460.522 415.938 470.731 415.938 481.25 415.938C481.25 452.238 481.25 488.537 481.25 525.938C471.041 525.938 460.831 525.938 450.312 525.938C450.312 489.637 450.312 453.338 450.312 415.938Z" fill="white"/>
</svg>
